# xmcd CD database file
#
# Track frame offsets:
#	150
#	13450
#	28039
#	42649
#	58112
#	71790
#	85558
#	100481
#	113401
#	126343
#	139504
#	153690
#	168807
#	180777
#	194893
#	208174
#	220913
#	232046
#	244260
#	258322
#	271161
#	285322
#	298583
#	312850
#	324283
#
# Disc length: 4505 seconds
#
# Revision: 0
# Processed by: cddbd v1.5PL3 Copyright (c) Steve Scherf et al.
# Submitted via: CDex 1.51
#
DISCID=76119719
DTITLE=Sleepy John Estes - Working Man Blues
DYEAR=2002
DGENRE=Blues
TTITLE0=The Girl I Love She Got Lomg Curly Hair
TTITLE1=Broken Hearted Raggedy And Dirty Too
TTITLE2=Divin' Duck Blues
TTITLE3=Black Mattie Blues
TTITLE4=Milk Cow Blues
TTITLE5=Expressman Blues
TTITLE6=Whatcha Doin'
TTITLE7=Poor John Blues
TTITLE8=My Black Gal Blues
TTITLE9=Sweet Mama
TTITLE10=Down South Blues
TTITLE11=Who's Been Tellin You Buddy Brown Blues
TTITLE12=Jack And Jill Blues
TTITLE13=Poor Man's Blues (T-Model)
TTITLE14=Hobo Jungle Blues
TTITLE15=Every Oughta Make A Change
TTITLE16=Liquor Store Blues 
TTITLE17=Easin' Back to Tennessee
TTITLE18=Fire Department Blues
TTITLE19=New Someday Baby
TTITLE20=Brownsville Blues
TTITLE21=Mailman Blues
TTITLE22=Lawyer Clark Blues
TTITLE23=Little Laura Blues
TTITLE24=Working Man Blues
EXTD=YEAR: 2002
EXTT0=
EXTT1=
EXTT2=
EXTT3=
EXTT4=
EXTT5=
EXTT6=
EXTT7=
EXTT8=
EXTT9=
EXTT10=
EXTT11=
EXTT12=
EXTT13=
EXTT14=
EXTT15=
EXTT16=
EXTT17=
EXTT18=
EXTT19=
EXTT20=
EXTT21=
EXTT22=
EXTT23=
EXTT24=
PLAYORDER=
